<?xml version="1.0" encoding="UTF-8"?>
<svg width="1920px" height="1080px" viewBox="0 0 1920 1080" version="1.1" xmlns="http://www.w3.org/2000/svg" xmlns:xlink="http://www.w3.org/1999/xlink">
    <title>L1 mosaic FFFFFF</title>
    <g id="L1-mosaic-FFFFFF" stroke="none" stroke-width="1" fill="none" fill-rule="evenodd" opacity="0.1">
        <g id="Group" transform="translate(-24.000000, -117.000000)" fill="#FFFFFF">
            <polygon id="Fill-1" points="1852 766 1944 766 1944 674 1852 674"/>
            <polygon id="Fill-1-Copy-61" opacity="0.4" points="1488 268 1543 268 1543 213 1488 213"/>
            <polygon id="Fill-1-Copy-2" opacity="0.6" points="1710.66667 572.666667 1772 572.666667 1772 511.333333 1710.66667 511.333333"/>
            <polygon id="Fill-1-Copy-29" opacity="0.6" points="1400 792.666667 1461.33333 792.666667 1461.33333 731.333333 1400 731.333333"/>
            <polygon id="Fill-1-Copy-12" opacity="0.3" points="1537.33333 703.333333 1618.66667 703.333333 1618.66667 622 1537.33333 622"/>
            <polygon id="Fill-1-Copy-13" opacity="0.4" points="1346.66667 490 1388 490 1388 448.666667 1346.66667 448.666667"/>
            <polygon id="Fill-1-Copy-14" opacity="0.2" points="1185.33333 543.333333 1244 543.333333 1244 484.666667 1185.33333 484.666667"/>
            <polygon id="Fill-1-Copy-23" opacity="0.3" points="1160 484.666667 1184 484.666667 1184 460.666667 1160 460.666667"/>
            <polygon id="Fill-1-Copy-84" opacity="0.3" points="965 610 989 610 989 586 965 586"/>
            <polygon id="Fill-1-Copy-8" opacity="0.6" points="1833.33333 472.666667 1868 472.666667 1868 438 1833.33333 438"/>
            <polygon id="Fill-1-Copy-31" opacity="0.6" points="1592 524.666667 1609.33333 524.666667 1609.33333 507.333333 1592 507.333333"/>
            <polygon id="Fill-1-Copy-89" opacity="0.6" points="1835 258.333333 1852.33333 258.333333 1852.33333 241 1835 241"/>
            <polygon id="Fill-1-Copy-83" opacity="0.6" points="1868 1148.33333 1885.33333 1148.33333 1885.33333 1131 1868 1131"/>
            <polygon id="Fill-1-Copy-66" opacity="0.6" points="1852 242.333333 1869.33333 242.333333 1869.33333 225 1852 225"/>
            <polygon id="Fill-1-Copy-62" opacity="0.6" points="1469 213.333333 1486.33333 213.333333 1486.33333 196 1469 196"/>
            <polygon id="Fill-1-Copy-30" opacity="0.9" points="1868 484.666667 1880 484.666667 1880 472.666667 1868 472.666667"/>
            <polygon id="Fill-1-Copy-7" points="1772 511.333333 1793.33333 511.333333 1793.33333 490 1772 490"/>
            <polygon id="Fill-1-Copy-77" opacity="0.3" points="1516 936.333333 1537.33333 936.333333 1537.33333 915 1516 915"/>
            <polygon id="Fill-1-Copy-17" opacity="0.7" points="1516 622 1537.33333 622 1537.33333 600.666667 1516 600.666667"/>
            <polygon id="Fill-2" points="1816 674 1850.66667 674 1850.66667 639.333333 1816 639.333333"/>
            <polygon id="Fill-3" points="1802.66667 687.333333 1816 687.333333 1816 674 1802.66667 674"/>
            <polygon id="Fill-1-Copy" points="0 615.333333 92 615.333333 92 523.333333 0 523.333333"/>
            <polygon id="Fill-1-Copy-4" points="92 523.333333 126.666667 523.333333 126.666667 488.666667 92 488.666667"/>
            <polygon id="Fill-1-Copy-15" opacity="0.5" points="143 181.333333 324.333333 181.333333 324.333333 -1.27897692e-13 143 -1.27897692e-13"/>
            <polygon id="Fill-1-Copy-21" points="542 438.333333 623.333333 438.333333 623.333333 357 542 357"/>
            <polygon id="Fill-1-Copy-54" points="324 225 368 225 368 181 324 181"/>
            <polygon id="Fill-1-Copy-60" points="1139 297 1205 297 1205 231 1139 231"/>
            <polygon id="Fill-1-Copy-18" opacity="0.3" points="626.666667 662 693.333333 662 693.333333 595.333333 626.666667 595.333333"/>
            <polygon id="Fill-1-Copy-63" opacity="0.3" points="1029.66667 448.666667 1073.66667 448.666667 1073.66667 404.666667 1029.66667 404.666667"/>
            <polygon id="Fill-1-Copy-53" opacity="0.3" points="92 1041.66667 158.666667 1041.66667 158.666667 975 92 975"/>
            <polygon id="Fill-1-Copy-19" opacity="0.2" points="838.666667 780.666667 877.333333 780.666667 877.333333 742 838.666667 742"/>
            <polygon id="Fill-1-Copy-91" opacity="0.2" points="681 846.666667 719.666667 846.666667 719.666667 808 681 808"/>
            <polygon id="Fill-1-Copy-68" opacity="0.5" points="1221.66667 1152.66667 1247.66667 1152.66667 1247.66667 1126.66667 1221.66667 1126.66667"/>
            <polygon id="Fill-1-Copy-22" opacity="0.2" points="1221.33333 734 1294.66667 734 1294.66667 660.666667 1221.33333 660.666667"/>
            <polygon id="Fill-1-Copy-64" points="793 562 887 562 887 468 793 468"/>
            <polygon id="Fill-1-Copy-79" opacity="0.2" points="1115 1036 1276 1036 1276 875 1115 875"/>
            <polygon id="Fill-1-Copy-20" opacity="0.5" points="821.333333 742 837.333333 742 837.333333 726 821.333333 726"/>
            <polygon id="Fill-1-Copy-65" points="720 863 736 863 736 847 720 847"/>
            <polygon id="Fill-1-Copy-90" points="980 983 996 983 996 967 980 967"/>
            <polygon id="Fill-1-Copy-86" points="1160 638 1172 638 1172 626 1160 626"/>
            <polygon id="Fill-1-Copy-81" points="1076 1074 1114 1074 1114 1036 1076 1036"/>
            <polygon id="Fill-1-Copy-85" points="988 648 1026 648 1026 610 988 610"/>
            <polygon id="Fill-1-Copy-70" points="583 1060 599 1060 599 1044 583 1044"/>
            <polygon id="Fill-1-Copy-71" points="360 1114 376 1114 376 1098 360 1098"/>
            <polygon id="Fill-1-Copy-28" points="994.666667 762 1006.66667 762 1006.66667 750 994.666667 750"/>
            <polygon id="Fill-1-Copy-82" points="887 467 899 467 899 455 887 455"/>
            <polygon id="Fill-1-Copy-78" points="1537 951 1549 951 1549 939 1537 939"/>
            <polygon id="Fill-1-Copy-59" points="332 1031 344 1031 344 1019 332 1019"/>
            <polygon id="Fill-1-Copy-9" points="126.666667 539.333333 142.666667 539.333333 142.666667 523.333333 126.666667 523.333333"/>
            <polygon id="Fill-1-Copy-10" opacity="0.3" points="134.666667 720.666667 182.666667 720.666667 182.666667 672.666667 134.666667 672.666667"/>
            <polygon id="Fill-1-Copy-56" points="1679 1060 1727 1060 1727 1012 1679 1012"/>
            <polygon id="Fill-1-Copy-52" points="46 975 94 975 94 927 46 927"/>
            <polygon id="Fill-1-Copy-72" points="256 1223 304 1223 304 1175 256 1175"/>
            <polygon id="Fill-1-Copy-11" opacity="0.3" points="182.666667 672.666667 198.666667 672.666667 198.666667 656.666667 182.666667 656.666667"/>
            <polygon id="Fill-1-Copy-57" points="1727 1012 1743 1012 1743 996 1727 996"/>
            <polygon id="Fill-1-Copy-27" points="264 586 280 586 280 570 264 570"/>
            <polygon id="Fill-1-Copy-88" points="201 305 217 305 217 289 201 289"/>
            <polygon id="Fill-1-Copy-87" opacity="0.5" points="526 357 542 357 542 341 526 341"/>
            <polygon id="Fill-1-Copy-3" opacity="0.3" points="408 796.666667 548 796.666667 548 656.666667 408 656.666667"/>
            <polygon id="Fill-1-Copy-58" opacity="0.3" points="1248 1293 1388 1293 1388 1153 1248 1153"/>
            <polygon id="Fill-1-Copy-5" points="373.333333 656.666667 408 656.666667 408 622 373.333333 622"/>
            <polygon id="Fill-1-Copy-16" points="410.666667 524.666667 445.333333 524.666667 445.333333 490 410.666667 490"/>
            <polygon id="Fill-1-Copy-75" points="781 190 821 190 821 150 781 150"/>
            <polygon id="Fill-1-Copy-74" points="1269 138 1295 138 1295 112 1269 112"/>
            <polygon id="Fill-1-Copy-67" points="632 257 656 257 656 233 632 233"/>
            <polygon id="Fill-1-Copy-80" opacity="0.2" points="454 309 478 309 478 285 454 285"/>
            <polygon id="Fill-1-Copy-73" points="1310 268 1322 268 1322 256 1310 256"/>
            <polygon id="Fill-1-Copy-76" points="821 202 833 202 833 190 821 190"/>
            <polygon id="Fill-1-Copy-25" points="181.333333 570 236 570 236 515.333333 181.333333 515.333333"/>
            <polygon id="Fill-1-Copy-55" points="70 285 105 285 105 250 70 250"/>
            <polygon id="Fill-1-Copy-26" points="214.666667 863.333333 329.333333 863.333333 329.333333 748.666667 214.666667 748.666667"/>
            <polygon id="Fill-1-Copy-69" points="599 1041 665 1041 665 975 599 975"/>
            <polygon id="Fill-1-Copy-6" points="362.666667 667.333333 373.333333 667.333333 373.333333 656.666667 362.666667 656.666667"/>
        </g>
    </g>
<script xmlns=""/></svg>